<svg width="75" height="75" viewBox="0 0 75 75" fill="none" xmlns="http://www.w3.org/2000/svg">
<path d="M38.8185 17.9589L41.631 15.1171C44.087 12.8786 47.311 11.6725 50.6332 11.7494C53.9554 11.8263 57.1202 13.1803 59.4699 15.5301C61.8197 17.8798 63.1737 21.0446 63.2506 24.3668C63.3275 27.689 62.1214 30.9131 59.8829 33.369L51.006 42.2167C49.8111 43.4161 48.3911 44.3677 46.8276 45.0171C45.264 45.6664 43.5877 46.0007 41.8947 46.0007C40.2016 46.0007 38.5253 45.6664 36.9617 45.0171C35.3982 44.3677 33.9782 43.4161 32.7833 42.2167" stroke="url(#paint0_linear_1238_6)" stroke-width="7.03125" stroke-linecap="round" stroke-linejoin="round"/>
<path d="M38.8185 17.9589L41.631 15.1171C44.087 12.8786 47.311 11.6725 50.6332 11.7494C53.9554 11.8263 57.1202 13.1803 59.4699 15.5301C61.8197 17.8798 63.1737 21.0446 63.2506 24.3668C63.3275 27.689 62.1214 30.9131 59.8829 33.369L51.006 42.2167C49.8111 43.4161 48.3911 44.3677 46.8276 45.0171C45.264 45.6664 43.5877 46.0007 41.8947 46.0007C40.2016 46.0007 38.5253 45.6664 36.9617 45.0171C35.3982 44.3677 33.9782 43.4161 32.7833 42.2167" stroke="black" stroke-opacity="0.2" stroke-width="7.03125" stroke-linecap="round" stroke-linejoin="round"/>
<path d="M36.1815 57.0409L33.369 59.8827C30.9131 62.1212 27.689 63.3273 24.3668 63.2504C21.0446 63.1734 17.8798 61.8194 15.5301 59.4697C13.1803 57.1199 11.8263 53.9551 11.7494 50.6329C11.6725 47.3108 12.8786 44.0867 15.1171 41.6307L23.994 32.783C25.1889 31.5837 26.6089 30.632 28.1724 29.9826C29.736 29.3333 31.4123 28.999 33.1054 28.999C34.7984 28.999 36.4747 29.3333 38.0383 29.9826C39.6018 30.632 41.0218 31.5837 42.2167 32.783" stroke="url(#paint1_linear_1238_6)" stroke-width="7.03125" stroke-linecap="round" stroke-linejoin="round"/>
<path d="M36.1815 57.0409L33.369 59.8827C30.9131 62.1212 27.689 63.3273 24.3668 63.2504C21.0446 63.1734 17.8798 61.8194 15.5301 59.4697C13.1803 57.1199 11.8263 53.9551 11.7494 50.6329C11.6725 47.3108 12.8786 44.0867 15.1171 41.6307L23.994 32.783C25.1889 31.5837 26.6089 30.632 28.1724 29.9826C29.736 29.3333 31.4123 28.999 33.1054 28.999C34.7984 28.999 36.4747 29.3333 38.0383 29.9826C39.6018 30.632 41.0218 31.5837 42.2167 32.783" stroke="black" stroke-opacity="0.2" stroke-width="7.03125" stroke-linecap="round" stroke-linejoin="round"/>
<defs>
<linearGradient id="paint0_linear_1238_6" x1="48.0187" y1="11.7459" x2="48.0187" y2="46.0007" gradientUnits="userSpaceOnUse">
<stop stop-color="#00E1AB"/>
<stop offset="1" stop-color="#3AACFF"/>
</linearGradient>
<linearGradient id="paint1_linear_1238_6" x1="26.9813" y1="28.999" x2="26.9813" y2="63.2538" gradientUnits="userSpaceOnUse">
<stop stop-color="#00E1AB"/>
<stop offset="1" stop-color="#3AACFF"/>
</linearGradient>
</defs>
</svg>
